<svg width="60" height="60" viewBox="0 0 60 60" fill="none" xmlns="http://www.w3.org/2000/svg">
<path d="M49.0625 55L43.9575 50.5L41.08 47.825L38.0375 45L39.2875 49.3975H12.3675C9.67157 49.3879 7.49312 47.196 7.50002 44.5V12.3925C7.49588 9.69848 9.67353 7.50965 12.3675 7.5H44.195C46.889 7.50965 49.0667 9.69848 49.0625 12.3925V55ZM37.75 33.77C36.6959 35.1838 35.1782 36.182 33.4625 36.59C34.1675 37.49 35.0175 38.5075 35.025 38.5175C37.8928 38.5781 40.6082 37.2293 42.2925 34.9075C42.2063 30.0943 41.0374 25.3623 38.8725 21.0625C36.9666 19.5669 34.6466 18.6941 32.2275 18.5625H32.2L31.8675 18.9425C34.0283 19.5229 36.0434 20.55 37.7825 21.9575C35.5696 20.741 33.1412 19.9666 30.6325 19.6775C29.0381 19.5004 27.4281 19.5164 25.8375 19.725C25.7251 19.7272 25.613 19.7389 25.5025 19.76H25.4325C23.5684 19.9746 21.7496 20.4808 20.0425 21.26C19.1875 21.6525 18.6625 21.9375 18.64 21.9475C18.6175 21.9575 18.64 21.9475 18.64 21.93C20.4848 20.4791 22.613 19.4308 24.8875 18.8525L24.6375 18.5675H24.6225C22.2035 18.6994 19.8836 19.5722 17.9775 21.0675C15.8048 25.3643 14.6354 30.0982 14.5575 34.9125C16.2209 37.2497 18.94 38.6037 21.8075 38.5225C21.8075 38.5225 22.7025 37.4325 23.4 36.55C21.7275 36.1297 20.2538 35.1396 19.2325 33.75C19.25 33.7625 19.4975 33.93 19.8975 34.15C19.9244 34.1816 19.9576 34.2071 19.995 34.225C20.0267 34.2469 20.0602 34.2662 20.095 34.2825C20.1346 34.3004 20.1722 34.3222 20.2075 34.3475C20.7653 34.655 21.3443 34.9223 21.94 35.1475C23.0727 35.596 24.2443 35.9391 25.44 36.1725C26.4869 36.3699 27.5497 36.4703 28.615 36.4725C29.6139 36.4724 30.6106 36.3803 31.5925 36.1975C32.7752 35.9898 33.9302 35.6476 35.035 35.1775C35.9894 34.8104 36.9 34.3384 37.75 33.77ZM32.655 32.7025C31.5674 32.7974 30.533 32.2148 30.0503 31.2355C29.5676 30.2562 29.7356 29.081 30.4733 28.2761C31.2111 27.4713 32.3672 27.2018 33.3848 27.5976C34.4023 27.9934 35.0725 28.9732 35.0725 30.065C35.1276 31.4598 34.0469 32.6376 32.6525 32.7025H32.655ZM23.985 32.7025C22.6171 32.5833 21.5674 31.4381 21.5674 30.065C21.5674 28.6919 22.6171 27.5467 23.985 27.4275C24.6151 27.4294 25.2176 27.6865 25.655 28.14C26.1514 28.6552 26.4214 29.3473 26.405 30.0625C26.4629 31.4597 25.3795 32.6403 23.9825 32.7025H23.985Z" fill="#6B748A"/>
</svg>
