<svg width="12" height="12" viewBox="0 0 12 12" fill="none" xmlns="http://www.w3.org/2000/svg">
<path d="M11.0261 9.18994L8.06113 6.23457L11.0245 3.27919C11.5945 2.71238 11.5945 1.78987 11.0245 1.22306C10.4545 0.651268 9.5328 0.65293 8.9628 1.2214L5.9978 4.17677L3.0328 1.21807C2.4628 0.649606 1.53946 0.65293 0.969463 1.21807C0.40113 1.78654 0.40113 2.70906 0.969463 3.27587L3.93613 6.23457L0.97613 9.18496C0.40613 9.75342 0.40613 10.6759 0.97613 11.2411C1.26113 11.527 1.6328 11.6683 2.00613 11.6683C2.38113 11.6683 2.7528 11.527 3.0378 11.2427L5.9978 8.2907L8.96446 11.2477C9.24946 11.532 9.62113 11.6733 9.99446 11.6733C10.3678 11.6733 10.7411 11.5303 11.0261 11.2477C11.5961 10.6793 11.5961 9.75841 11.0261 9.18994" fill="white"/>
</svg>
