<svg width="43" height="48" viewBox="0 0 43 48" fill="none" xmlns="http://www.w3.org/2000/svg">
<path d="M42.0625 48L36.9575 43.5L34.08 40.825L31.0375 38L32.2875 42.3975H5.36753C2.67157 42.3879 0.493117 40.196 0.500016 37.5V5.3925C0.495879 2.69848 2.67353 0.509648 5.36753 0.5H37.195C39.889 0.509648 42.0667 2.69848 42.0625 5.3925V48ZM30.75 26.77C29.6959 28.1838 28.1782 29.182 26.4625 29.59C27.1675 30.49 28.0175 31.5075 28.025 31.5175C30.8928 31.5781 33.6082 30.2293 35.2925 27.9075C35.2063 23.0943 34.0374 18.3623 31.8725 14.0625C29.9666 12.5669 27.6466 11.6941 25.2275 11.5625H25.2L24.8675 11.9425C27.0283 12.5229 29.0434 13.55 30.7825 14.9575C28.5696 13.741 26.1412 12.9666 23.6325 12.6775C22.0381 12.5004 20.4281 12.5164 18.8375 12.725C18.7251 12.7272 18.613 12.7389 18.5025 12.76H18.4325C16.5684 12.9746 14.7496 13.4808 13.0425 14.26C12.1875 14.6525 11.6625 14.9375 11.64 14.9475C11.6175 14.9575 11.64 14.9475 11.64 14.93C13.4848 13.4791 15.613 12.4308 17.8875 11.8525L17.6375 11.5675H17.6225C15.2035 11.6994 12.8836 12.5722 10.9775 14.0675C8.8048 18.3643 7.63544 23.0982 7.55753 27.9125C9.22087 30.2497 11.94 31.6037 14.8075 31.5225C14.8075 31.5225 15.7025 30.4325 16.4 29.55C14.7275 29.1297 13.2538 28.1396 12.2325 26.75C12.25 26.7625 12.4975 26.93 12.8975 27.15C12.9244 27.1816 12.9576 27.2071 12.995 27.225C13.0267 27.2469 13.0602 27.2662 13.095 27.2825C13.1346 27.3004 13.1722 27.3222 13.2075 27.3475C13.7653 27.655 14.3443 27.9223 14.94 28.1475C16.0727 28.596 17.2443 28.9391 18.44 29.1725C19.4869 29.3699 20.5497 29.4703 21.615 29.4725C22.6139 29.4724 23.6106 29.3803 24.5925 29.1975C25.7752 28.9898 26.9302 28.6476 28.035 28.1775C28.9894 27.8104 29.9 27.3384 30.75 26.77ZM25.655 25.7025C24.5674 25.7974 23.533 25.2148 23.0503 24.2355C22.5676 23.2562 22.7356 22.081 23.4733 21.2761C24.2111 20.4713 25.3672 20.2018 26.3848 20.5976C27.4023 20.9934 28.0725 21.9732 28.0725 23.065C28.1276 24.4598 27.0469 25.6376 25.6525 25.7025H25.655ZM16.985 25.7025C15.6171 25.5833 14.5674 24.4381 14.5674 23.065C14.5674 21.6919 15.6171 20.5467 16.985 20.4275C17.6151 20.4294 18.2176 20.6865 18.655 21.14C19.1514 21.6552 19.4214 22.3473 19.405 23.0625C19.4629 24.4597 18.3795 25.6403 16.9825 25.7025H16.985Z" fill="#6B748A"/>
</svg>
