<svg width="16" height="15" viewBox="0 0 16 15" fill="none" xmlns="http://www.w3.org/2000/svg">
<path d="M13.6444 6.26727L9.458 6.27405L9.4636 2.08887C9.46585 1.28502 8.81353 0.632697 8.00968 0.634949C7.2023 0.633676 6.55176 1.28657 6.55068 2.09159L6.5439 6.27796L2.35519 6.28239C1.55017 6.28346 0.899621 6.93871 0.896193 7.74138C0.896294 8.54523 1.54862 9.19755 2.35129 9.19648L6.54118 9.19087L6.53441 13.3702C6.53333 14.1752 7.18566 14.8275 7.98833 14.8241C8.39202 14.8247 8.75473 14.6618 9.01872 14.3978C9.28388 14.1327 9.44679 13.77 9.44732 13.3674L9.45292 9.18697L13.6416 9.18019C14.0441 9.17965 14.4069 9.01675 14.6709 8.75276C14.9348 8.48877 15.0977 8.12371 15.0995 7.72237C15.1005 6.91735 14.4494 6.2662 13.6444 6.26727Z" fill="white"/>
</svg>
